<?xml version="1.0" standalone="no"?>
<!DOCTYPE svg PUBLIC "-//W3C//DTD SVG 20010904//EN"
 "http://www.w3.org/TR/2001/REC-SVG-20010904/DTD/svg10.dtd">
<svg version="1.0" xmlns="http://www.w3.org/2000/svg"
 width="512.000000pt" height="512.000000pt" viewBox="0 0 512.000000 512.000000"
 preserveAspectRatio="xMidYMid meet">
<metadata>
Created by potrace 1.14, written by Peter Selinger 2001-2017
</metadata>
<g transform="translate(0.000000,512.000000) scale(0.100000,-0.100000)"
fill="#000000" stroke="none">
<path d="M3000 5071 c-501 -207 -854 -446 -1156 -781 -57 -63 -142 -181 -196
-270 -210 -350 -302 -771 -247 -1133 6 -43 10 -80 8 -82 -2 -2 -23 22 -47 53
-76 101 -169 313 -187 426 -12 73 -17 129 -16 186 l1 65 -25 -30 c-35 -43
-148 -210 -185 -275 -135 -238 -252 -556 -285 -780 -4 -24 -8 -47 -10 -51 -17
-26 -24 -359 -12 -494 11 -110 51 -304 88 -417 63 -193 225 -480 384 -678 33
-41 67 -83 75 -94 29 -37 126 -150 206 -242 11 -12 57 -51 104 -86 211 -161
448 -270 723 -334 224 -51 239 -53 497 -49 135 2 259 6 275 8 17 3 53 8 80 11
47 6 100 15 135 22 35 7 81 24 170 64 400 176 690 445 864 800 61 126 67 140
101 250 28 88 42 137 51 180 3 14 9 41 14 60 10 39 46 257 54 335 27 240 27
571 0 777 -39 302 -164 605 -334 813 -33 40 -33 40 -26 10 54 -220 -3 -526
-155 -840 -77 -158 -159 -312 -160 -300 0 6 -2 19 -4 30 -2 11 -5 43 -8 70
-12 115 -58 277 -122 430 -44 104 -209 409 -324 597 -328 538 -436 827 -434
1163 1 96 5 150 18 205 4 14 9 39 11 55 17 95 85 231 175 348 11 15 19 27 17
26 -1 0 -55 -22 -118 -48z"/>
</g>
</svg>
