<?xml version="1.0" encoding="UTF-8" standalone="no"?>
<svg
   xmlns:dc="http://purl.org/dc/elements/1.1/"
   xmlns:cc="http://creativecommons.org/ns#"
   xmlns:rdf="http://www.w3.org/1999/02/22-rdf-syntax-ns#"
   xmlns:svg="http://www.w3.org/2000/svg"
   xmlns="http://www.w3.org/2000/svg"
   xmlns:sodipodi="http://sodipodi.sourceforge.net/DTD/sodipodi-0.dtd"
   xmlns:inkscape="http://www.inkscape.org/namespaces/inkscape"
   version="1.1"
   id="svg2"
   xml:space="preserve"
   width="340.15732"
   height="188.976"
   viewBox="0 0 340.15732 188.976"
   sodipodi:docname="sawtronics_logo_final.ai"><metadata
     id="metadata8"><rdf:RDF><cc:Work
         rdf:about=""><dc:format>image/svg+xml</dc:format><dc:type
           rdf:resource="http://purl.org/dc/dcmitype/StillImage" /></cc:Work></rdf:RDF></metadata><defs
     id="defs6"><clipPath
       clipPathUnits="userSpaceOnUse"
       id="clipPath18"><path
         d="M 0,141.732 H 255.118 V 0 H 0 Z"
         id="path16" /></clipPath></defs><sodipodi:namedview
     pagecolor="#ffffff"
     bordercolor="#666666"
     borderopacity="1"
     objecttolerance="10"
     gridtolerance="10"
     guidetolerance="10"
     inkscape:pageopacity="0"
     inkscape:pageshadow="2"
     inkscape:window-width="640"
     inkscape:window-height="480"
     id="namedview4" /><g
     id="g10"
     inkscape:groupmode="layer"
     inkscape:label="sawtronics_logo_final"
     transform="matrix(1.3333333,0,0,-1.3333333,0,188.976)"><g
       id="g12"><g
         id="g14"
         clip-path="url(#clipPath18)"><g
           id="g20"
           transform="translate(124.4962,78.7267)"><path
             d="M 0,0 C -1.071,0 -2.071,-0.17 -3,-0.511 -3.931,-0.853 -4.726,-1.334 -5.388,-1.957 -6.05,-2.579 -6.57,-3.342 -6.948,-4.246 -7.326,-5.15 -7.515,-6.166 -7.515,-7.292 v -10.939 h 4.664 v 10.004 c 0,1.365 0.339,2.41 1.018,3.136 0.679,0.726 1.681,1.089 3.006,1.089 0.003,0 0.439,-0.004 0.836,-0.007 v 4.003 C 1.123,-0.003 0.21,0 0,0"
             style="fill:#382580;fill-opacity:1;fill-rule:nonzero;stroke:none"
             id="path22" /></g><g
           id="g24"
           transform="translate(171.0441,73.4371)"><path
             d="m 0,0 c -0.492,1.141 -1.174,2.135 -2.046,2.979 -0.873,0.846 -1.915,1.512 -3.126,2.002 -0.926,0.373 -2.023,0.716 -3.625,0.716 -1.523,0 -2.7,-0.343 -3.626,-0.716 -1.211,-0.49 -2.253,-1.156 -3.125,-2.002 -0.873,-0.844 -1.555,-1.838 -2.046,-2.979 -0.492,-1.141 -0.737,-2.35 -0.737,-3.624 0,0 0.005,-10e-4 0.006,-0.002 v -9.422 h 4.659 v 9.441 c 0.004,1.592 0.513,2.877 1.53,3.852 0.913,0.876 1.905,1.429 3.339,1.429 1.602,0 2.425,-0.553 3.339,-1.429 1.017,-0.975 1.525,-2.26 1.529,-3.852 v -9.441 H 0.73 v 9.422 c 0.001,10e-4 0.007,10e-4 0.007,10e-4 C 0.737,-2.35 0.491,-1.141 0,0"
             style="fill:#382580;fill-opacity:1;fill-rule:nonzero;stroke:none"
             id="path26" /></g><g
           id="g28"
           transform="translate(103.4103,78.7877)"><path
             d="M 0,0 H 9.97 V -4.132 H 4.498 v -7.76 c 0,-1.101 0.239,-1.837 0.718,-2.204 0.48,-0.367 1.198,-0.55 2.158,-0.55 0.926,0 1.854,0.092 2.781,0.275 v -3.902 c -0.649,-0.184 -1.275,-0.314 -1.878,-0.39 -0.603,-0.077 -1.245,-0.115 -1.924,-0.115 -0.867,0 -1.686,0.098 -2.458,0.298 -0.773,0.199 -1.453,0.543 -2.041,1.033 -0.587,0.489 -1.059,1.132 -1.414,1.927 -0.356,0.796 -0.533,1.776 -0.533,2.94 v 8.448 z"
             style="fill:#382580;fill-opacity:1;fill-rule:nonzero;stroke:none"
             id="path30" /></g><g
           id="g32"
           transform="translate(134.2023,69.5826)"><path
             d="m 0,0 c 0,-1.677 0.479,-3.019 1.437,-4.024 0.959,-1.006 2.18,-1.509 3.665,-1.509 1.483,0 2.711,0.503 3.685,1.509 0.975,1.005 1.461,2.347 1.461,4.024 0,1.675 -0.486,3.017 -1.461,4.023 C 7.813,5.029 6.585,5.532 5.102,5.532 3.617,5.532 2.396,5.029 1.437,4.023 0.479,3.017 0,1.675 0,0 m -4.499,0.022 c 0,1.316 0.239,2.563 0.719,3.742 0.479,1.178 1.143,2.205 1.995,3.076 0.849,0.872 1.861,1.562 3.037,2.066 1.175,0.506 2.457,0.758 3.85,0.758 1.39,0 2.68,-0.252 3.871,-0.758 1.19,-0.504 2.211,-1.194 3.06,-2.066 0.85,-0.871 1.515,-1.898 1.994,-3.076 0.48,-1.179 0.72,-2.426 0.72,-3.742 0,-1.347 -0.24,-2.601 -0.72,-3.764 -0.479,-1.164 -1.144,-2.174 -1.994,-3.03 -0.849,-0.858 -1.87,-1.54 -3.06,-2.043 -1.191,-0.506 -2.481,-0.758 -3.871,-0.758 -1.393,0 -2.675,0.252 -3.85,0.758 -1.176,0.503 -2.188,1.185 -3.037,2.043 -0.852,0.856 -1.516,1.866 -1.995,3.03 -0.48,1.163 -0.719,2.417 -0.719,3.764"
             style="fill:#382580;fill-opacity:1;fill-rule:nonzero;stroke:none"
             id="path34" /></g><path
           d="m 176.542,78.788 h 4.59 V 60.423 h -4.59 z"
           style="fill:#382580;fill-opacity:1;fill-rule:nonzero;stroke:none"
           id="path36" /><g
           id="g38"
           transform="translate(194.5509,75.1149)"><path
             d="m 0,0 c -1.483,0 -2.729,-0.505 -3.732,-1.515 -1.005,-1.011 -1.507,-2.342 -1.507,-3.995 0,-1.715 0.502,-3.076 1.507,-4.086 1.003,-1.009 2.249,-1.515 3.732,-1.515 1.144,0 2.11,0.267 2.898,0.803 0.79,0.536 1.306,1.202 1.554,1.997 h 4.544 c -0.34,-1.99 -1.306,-3.62 -2.898,-4.89 -1.593,-1.27 -3.624,-1.904 -6.098,-1.904 -1.453,0 -2.783,0.251 -3.99,0.757 -1.208,0.504 -2.241,1.186 -3.101,2.043 -0.859,0.857 -1.53,1.867 -2.013,3.031 -0.485,1.163 -0.726,2.417 -0.726,3.764 0,1.316 0.241,2.563 0.726,3.742 0.483,1.178 1.154,2.205 2.013,3.076 0.86,0.872 1.884,1.562 3.077,2.066 1.192,0.505 2.515,0.758 3.968,0.758 C 1.19,4.132 2.318,3.955 3.34,3.604 4.359,3.252 5.264,2.77 6.052,2.158 6.841,1.545 7.481,0.818 7.977,-0.023 8.471,-0.866 8.812,-1.775 8.996,-2.754 H 4.405 C 4.128,-1.959 3.595,-1.302 2.807,-0.781 2.018,-0.261 1.082,0 0,0"
             style="fill:#382580;fill-opacity:1;fill-rule:nonzero;stroke:none"
             id="path40" /></g><g
           id="g42"
           transform="translate(213.7345,63.6822)"><path
             d="m 0,0 c 0.865,0 1.607,0.145 2.226,0.437 0.618,0.29 0.927,0.787 0.927,1.491 0,0.765 -0.371,1.301 -1.112,1.607 C 1.298,3.841 0.34,4.147 -0.834,4.454 -1.67,4.667 -2.458,4.92 -3.199,5.212 c -0.742,0.29 -1.4,0.657 -1.972,1.101 -0.572,0.443 -1.019,0.98 -1.345,1.607 -0.324,0.627 -0.486,1.401 -0.486,2.319 0,1.469 0.586,2.724 1.763,3.764 1.174,1.041 2.843,1.561 5.008,1.561 1.113,0 2.125,-0.16 3.037,-0.481 C 3.718,14.761 4.482,14.34 5.101,13.82 5.72,13.299 6.206,12.709 6.562,12.052 6.917,11.394 7.096,10.712 7.096,10.009 H 2.875 c -0.062,0.52 -0.348,0.964 -0.857,1.331 -0.51,0.368 -1.214,0.552 -2.111,0.552 -0.804,0 -1.445,-0.169 -1.924,-0.506 -0.48,-0.336 -0.719,-0.765 -0.719,-1.285 0,-0.643 0.333,-1.118 0.998,-1.423 C -1.074,8.372 -0.124,8.05 1.113,7.713 1.854,7.53 2.604,7.293 3.361,7.001 4.119,6.711 4.799,6.336 5.402,5.877 6.005,5.418 6.492,4.858 6.863,4.201 7.234,3.542 7.419,2.755 7.419,1.837 7.419,0.948 7.226,0.161 6.84,-0.527 6.453,-1.217 5.928,-1.791 5.264,-2.25 4.599,-2.709 3.826,-3.061 2.945,-3.306 2.063,-3.551 1.128,-3.673 0.139,-3.673 c -2.287,0 -4.088,0.512 -5.402,1.538 -1.314,1.026 -2.049,2.364 -2.203,4.018 h 4.127 C -3.277,1.361 -2.953,0.918 -2.364,0.552 -1.778,0.184 -0.989,0 0,0"
             style="fill:#382580;fill-opacity:1;fill-rule:nonzero;stroke:none"
             id="path44" /></g><g
           id="g46"
           transform="translate(99.6705,78.7804)"><path
             d="m 0,0 h -4.66 l -0.116,-9.419 c -0.004,-1.593 -0.512,-2.878 -1.53,-3.853 -0.901,-0.864 -2.077,-1.57 -3.285,-1.424 -0.643,0.077 -1.135,0.358 -1.582,0.786 -0.578,0.555 -0.868,1.284 -0.877,2.184 v 11.725 h -4.663 v -11.916 c -0.047,-0.81 -0.325,-1.48 -0.86,-1.993 -0.399,-0.382 -0.839,-0.637 -1.384,-0.745 -0.155,-0.016 -0.3,-0.046 -0.468,-0.046 -1.602,0 -2.425,0.553 -3.339,1.429 -1.017,0.975 -1.526,2.26 -1.529,3.853 l 0.116,9.45 h -4.659 l -0.117,-9.432 c -0.001,-10e-4 -0.006,-0.002 -0.006,-0.002 0,-1.274 0.245,-2.483 0.737,-3.624 0.493,-1.141 1.174,-2.136 2.046,-2.979 0.873,-0.846 1.915,-1.512 3.126,-2.002 0.925,-0.373 2.023,-0.716 3.625,-0.716 1.524,0 2.7,0.343 3.625,0.716 0.448,0.181 0.864,0.394 1.265,0.623 0.402,-0.229 0.818,-0.442 1.265,-0.623 0.925,-0.373 2.023,-0.716 3.625,-0.716 1.524,0 2.7,0.343 3.625,0.716 1.212,0.49 2.253,1.156 3.126,2.002 0.873,0.843 1.554,1.838 2.046,2.979 0.492,1.141 0.738,2.35 0.738,3.623 0,0 -0.006,0.002 -0.007,0.003 z"
             style="fill:#382580;fill-opacity:1;fill-rule:nonzero;stroke:none"
             id="path48" /></g><g
           id="g50"
           transform="translate(39.1481,63.6822)"><path
             d="m 0,0 c 0.865,0 1.607,0.145 2.226,0.437 0.618,0.29 0.927,0.787 0.927,1.491 0,0.765 -0.371,1.301 -1.113,1.607 -0.742,0.306 -1.7,0.612 -2.874,0.919 -0.835,0.213 -1.624,0.466 -2.366,0.758 -0.742,0.29 -1.399,0.657 -1.971,1.101 -0.572,0.443 -1.02,0.98 -1.344,1.607 -0.325,0.627 -0.487,1.401 -0.487,2.319 0,1.469 0.586,2.724 1.762,3.764 1.175,1.041 2.844,1.561 5.008,1.561 1.113,0 2.125,-0.16 3.038,-0.481 0.911,-0.322 1.676,-0.743 2.295,-1.263 0.618,-0.521 1.105,-1.111 1.461,-1.768 0.355,-0.658 0.533,-1.34 0.533,-2.043 h -4.22 c -0.062,0.52 -0.348,0.964 -0.858,1.331 -0.51,0.368 -1.214,0.552 -2.11,0.552 -0.804,0 -1.446,-0.169 -1.924,-0.506 -0.48,-0.336 -0.719,-0.765 -0.719,-1.285 0,-0.643 0.332,-1.118 0.997,-1.423 C -1.075,8.372 -0.124,8.05 1.113,7.713 1.855,7.53 2.604,7.293 3.362,7.001 4.119,6.711 4.799,6.336 5.402,5.877 6.005,5.418 6.492,4.858 6.863,4.201 7.234,3.542 7.42,2.755 7.42,1.837 7.42,0.948 7.226,0.161 6.84,-0.527 6.453,-1.217 5.927,-1.791 5.263,-2.25 4.598,-2.709 3.826,-3.061 2.944,-3.306 2.063,-3.551 1.128,-3.673 0.139,-3.673 c -2.288,0 -4.089,0.512 -5.402,1.538 -1.315,1.026 -2.049,2.364 -2.203,4.018 h 4.127 C -3.277,1.361 -2.953,0.918 -2.365,0.552 -1.778,0.184 -0.99,0 0,0"
             style="fill:#382580;fill-opacity:1;fill-rule:nonzero;stroke:none"
             id="path52" /></g><g
           id="g54"
           transform="translate(59.4249,78.8185)"><path
             d="m 0,0 c -1.523,0 -2.7,-0.343 -3.625,-0.716 -1.212,-0.49 -2.253,-1.156 -3.126,-2.001 -0.873,-0.845 -1.554,-1.839 -2.046,-2.98 -0.492,-1.141 -0.737,-2.349 -0.737,-3.624 0,0 0.005,-10e-4 0.006,-0.002 v -9.106 h 4.659 v 0.034 l 5.957,3.023 10e-4,4.914 -5.958,-2.941 v 4.095 c 0.004,1.593 0.513,2.877 1.53,3.852 0.876,0.84 1.834,1.369 3.174,1.412 H 3.028 V -18.396 H 7.619 V 0 C 7.619,0 0.037,0 0,0"
             style="fill:#382580;fill-opacity:1;fill-rule:nonzero;stroke:none"
             id="path56" /></g></g></g></g></svg>
